<svg id="visual" viewBox="0 0 960 540" width="960" height="540" xmlns="http://www.w3.org/2000/svg" xmlns:xlink="http://www.w3.org/1999/xlink" version="1.1"><rect x="0" y="0" width="960" height="540" fill="#700000"></rect><defs><linearGradient id="grad1_0" x1="43.8%" y1="100%" x2="100%" y2="0%"><stop offset="14.444444444444446%" stop-color="#c00000" stop-opacity="1"></stop><stop offset="85.55555555555554%" stop-color="#c00000" stop-opacity="1"></stop></linearGradient></defs><defs><linearGradient id="grad1_1" x1="43.8%" y1="100%" x2="100%" y2="0%"><stop offset="14.444444444444446%" stop-color="#c00000" stop-opacity="1"></stop><stop offset="85.55555555555554%" stop-color="#a50003" stop-opacity="1"></stop></linearGradient></defs><defs><linearGradient id="grad1_2" x1="43.8%" y1="100%" x2="100%" y2="0%"><stop offset="14.444444444444446%" stop-color="#8a0003" stop-opacity="1"></stop><stop offset="85.55555555555554%" stop-color="#a50003" stop-opacity="1"></stop></linearGradient></defs><defs><linearGradient id="grad1_3" x1="43.8%" y1="100%" x2="100%" y2="0%"><stop offset="14.444444444444446%" stop-color="#8a0003" stop-opacity="1"></stop><stop offset="85.55555555555554%" stop-color="#700000" stop-opacity="1"></stop></linearGradient></defs><defs><linearGradient id="grad2_0" x1="0%" y1="100%" x2="56.3%" y2="0%"><stop offset="14.444444444444446%" stop-color="#c00000" stop-opacity="1"></stop><stop offset="85.55555555555554%" stop-color="#c00000" stop-opacity="1"></stop></linearGradient></defs><defs><linearGradient id="grad2_1" x1="0%" y1="100%" x2="56.3%" y2="0%"><stop offset="14.444444444444446%" stop-color="#a50003" stop-opacity="1"></stop><stop offset="85.55555555555554%" stop-color="#c00000" stop-opacity="1"></stop></linearGradient></defs><defs><linearGradient id="grad2_2" x1="0%" y1="100%" x2="56.3%" y2="0%"><stop offset="14.444444444444446%" stop-color="#a50003" stop-opacity="1"></stop><stop offset="85.55555555555554%" stop-color="#8a0003" stop-opacity="1"></stop></linearGradient></defs><defs><linearGradient id="grad2_3" x1="0%" y1="100%" x2="56.3%" y2="0%"><stop offset="14.444444444444446%" stop-color="#700000" stop-opacity="1"></stop><stop offset="85.55555555555554%" stop-color="#8a0003" stop-opacity="1"></stop></linearGradient></defs><g transform="translate(960, 540)"><path d="M-297 0C-297 -42.9 -297 -85.8 -274.4 -113.7C-251.8 -141.6 -206.5 -154.5 -176.1 -176.1C-145.7 -197.6 -130.2 -227.9 -103.3 -249.4C-76.5 -271 -38.2 -284 0 -297L0 0Z" fill="#7d0002"></path><path d="M-222.7 0C-222.8 -32.2 -222.8 -64.3 -205.8 -85.2C-188.8 -106.2 -154.8 -115.9 -132.1 -132.1C-109.3 -148.2 -97.6 -170.9 -77.5 -187.1C-57.3 -203.3 -28.7 -213 0 -222.7L0 0Z" fill="#970003"></path><path d="M-148.5 0C-148.5 -21.4 -148.5 -42.9 -137.2 -56.8C-125.9 -70.8 -103.2 -77.2 -88 -88C-72.8 -98.8 -65.1 -113.9 -51.7 -124.7C-38.2 -135.5 -19.1 -142 0 -148.5L0 0Z" fill="#b20002"></path><path d="M-74.2 0C-74.3 -10.7 -74.3 -21.4 -68.6 -28.4C-62.9 -35.4 -51.6 -38.6 -44 -44C-36.4 -49.4 -32.5 -57 -25.8 -62.4C-19.1 -67.8 -9.6 -71 0 -74.2L0 0Z" fill="#c00000"></path></g><g transform="translate(0, 0)"><path d="M297 0C279.3 32.7 261.6 65.5 250.4 103.7C239.1 142 234.3 185.7 210 210C185.7 234.3 142 239.1 103.7 250.4C65.5 261.6 32.7 279.3 0 297L0 0Z" fill="#7d0002"></path><path d="M222.8 0C209.5 24.5 196.2 49.1 187.8 77.8C179.3 106.5 175.7 139.3 157.5 157.5C139.3 175.7 106.5 179.3 77.8 187.8C49.1 196.2 24.5 209.5 0 222.8L0 0Z" fill="#970003"></path><path d="M148.5 0C139.7 16.4 130.8 32.7 125.2 51.9C119.6 71 117.2 92.9 105 105C92.9 117.2 71 119.6 51.9 125.2C32.7 130.8 16.4 139.7 0 148.5L0 0Z" fill="#b20002"></path><path d="M74.3 0C69.8 8.2 65.4 16.4 62.6 25.9C59.8 35.5 58.6 46.4 52.5 52.5C46.4 58.6 35.5 59.8 25.9 62.6C16.4 65.4 8.2 69.8 0 74.3L0 0Z" fill="#c00000"></path></g></svg>