<?xml version="1.0" encoding="UTF-8"?>
<!DOCTYPE svg PUBLIC "-//W3C//DTD SVG 1.1//EN" "http://www.w3.org/Graphics/SVG/1.1/DTD/svg11.dtd">
<!-- Creator: CorelDRAW X7 -->
<svg xmlns="http://www.w3.org/2000/svg" xml:space="preserve" width="500px" height="500px" version="1.1" style="shape-rendering:geometricPrecision; text-rendering:geometricPrecision; image-rendering:optimizeQuality; fill-rule:evenodd; clip-rule:evenodd"
viewBox="0 0 500 500"
 xmlns:xlink="http://www.w3.org/1999/xlink">
 <defs>
  <style type="text/css">
   <![CDATA[
    .fil1 {fill:#4B4B4D}
    .fil0 {fill:#ED3237}
    .fil2 {fill:#808185}
    .fil3 {fill:white}
   ]]>
  </style>
 </defs>
 <g id="Layer_x0020_1">
  <metadata id="CorelCorpID_0Corel-Layer"/>
  <g id="_1790236420912">
   <path class="fil0" d="M227 223l28 14c5,2 9,4 14,6 6,3 12,4 11,10l-53 -24 -1 65c2,0 19,8 20,8l0 -47c6,2 13,5 18,7 4,2 12,8 17,8 5,0 15,-5 18,-7 2,-2 2,-1 2,-4 0,-2 0,-5 0,-7 0,-3 0,-9 0,-12 -1,-1 -16,-8 -19,-9 -7,-3 -54,-25 -55,-25l0 17z"/>
   <path class="fil1" d="M276 227c3,1 16,8 18,8 3,0 5,-2 8,-2l0 68c3,1 7,-1 10,-2 3,-2 6,-3 9,-5l0 -88c-4,1 -19,8 -23,10 -4,2 -20,9 -22,11z"/>
   <g>
    <path class="fil2" d="M325 309c-11,2 -8,18 2,17 4,-1 8,-5 7,-10 -1,-4 -5,-8 -9,-7z"/>
    <path class="fil2" d="M252 326l0 -4c-3,0 -11,1 -13,0 -1,-1 0,-2 0,-4l10 0 0 -3 -10 0c-1,-4 2,-3 5,-3 2,0 5,0 8,0l0 -3c-3,0 -10,0 -13,0 -4,0 -4,4 -4,8 0,2 0,4 1,6 0,1 2,2 3,3 2,0 10,0 13,0z"/>
    <path class="fil2" d="M316 326l0 -10 -8 0 0 4 5 0 0 2c-5,1 -11,0 -10,-6 2,-6 9,-2 13,-4l0 -3c-2,0 -9,0 -11,1 -7,3 -6,12 0,15 2,1 8,1 11,1z"/>
    <path class="fil2" d="M219 326l3 0 0 -8c2,0 7,1 8,0 4,-1 6,-9 -2,-9 -3,0 -7,0 -9,0l0 17z"/>
    <path class="fil2" d="M254 326l3 0 0 -10c1,0 11,9 13,10l0 -17 -3 0 0 10c-3,-2 -11,-9 -13,-10l0 17z"/>
    <polygon class="fil2" points="272,312 278,312 278,326 282,326 282,312 288,312 288,309 272,309 "/>
    <path class="fil2" d="M285 326l3 0 4 -7c0,-1 0,-2 1,-3l5 10 3 0c0,-1 -7,-15 -8,-17 0,1 -8,16 -8,17z"/>
    <path class="fil3" d="M325 312c-7,2 -4,12 2,10 6,-1 4,-11 -2,-10z"/>
    <path class="fil3" d="M222 315c2,0 6,0 8,-1l0 -1c-1,-1 -6,-1 -8,-1l0 3z"/>
   </g>
  </g>
 </g>
</svg>
